<svg id="Layer_2" data-name="Layer 2" xmlns="http://www.w3.org/2000/svg" viewBox="0 0 512 512"><defs><style>.cls-1{fill:#0095dd;}.cls-2{fill:#87c2a9;}.cls-3{fill:#f1d2ad;}.cls-4{fill:#e29f96;}</style></defs><title>Artboard 2</title><path class="cls-1" d="M229.11,389.45a144.21,144.21,0,0,0,13.54,12A150.06,150.06,0,0,1,0,283.31C0,252.17,42.36,232.74,95.25,225c2.39-.36,4.82-.7,7.25-1a72.92,72.92,0,0,0,95.18,0c2.43.29,4.82.63,7.21,1a265.29,265.29,0,0,1,37.76,8.21c-33.93,10.2-57.52,26.91-57.52,50.13A149.66,149.66,0,0,0,229.11,389.45Z"/><path class="cls-1" d="M223.22,151.7a70.65,70.65,0,0,1-.51,8.39c-.15,1.32-.34,2.65-.59,3.93A73.14,73.14,0,0,0,78,164.14c-.26-1.33-.45-2.69-.59-4A70.66,70.66,0,0,1,77,151.7a73.13,73.13,0,0,1,146.26,0Z"/><path class="cls-2" d="M222.12,164A73.1,73.1,0,0,1,78,164.14,73.13,73.13,0,0,1,222.12,164Z"/><path class="cls-3" d="M197.68,224c2.43.29,4.82.63,7.21,1-1,1.14-2,2.29-3.13,3.35a73,73,0,0,1-103.38,0c-1.11-1.06-2.14-2.21-3.13-3.35,2.39-.36,4.82-.7,7.25-1a72.92,72.92,0,0,0,95.18,0Z"/><path class="cls-3" d="M98.38,203.41A72.66,72.66,0,0,1,78,164.14,73.13,73.13,0,0,1,222.12,164,73.06,73.06,0,0,1,98.38,203.41Z"/><path class="cls-1" d="M512,283.32A150.06,150.06,0,0,1,361.91,433.38c-4.5,0-9-.19-13.35-.61a0,0,0,0,1-.07,0A149.51,149.51,0,0,1,256,389.64a1.44,1.44,0,0,0-.22-.19,149.64,149.64,0,0,1-43.94-106.13c0-20.05,17.55-35.23,44.16-45.57a211.33,211.33,0,0,1,36.1-10.19c4.87-1,9.87-1.83,15-2.57,1,1.14,2,2.28,3.14,3.34a73,73,0,0,0,103.38,0c1.11-1.06,2.13-2.23,3.14-3.36C469.62,232.73,512,252.19,512,283.32Z"/><path class="cls-4" d="M416.73,225c-1,1.13-2,2.3-3.14,3.36a73,73,0,0,1-103.38,0c-1.11-1.06-2.1-2.2-3.14-3.34.52-.1,1-.17,1.58-.25q2.82-.41,5.69-.76c.91.79,1.85,1.56,2.79,2.27.65.55,1.31,1,2,1.54a71.21,71.21,0,0,0,8.28,5.21c.91.5,1.83,1,2.77,1.41h0c.89.45,1.81.87,2.75,1.26a1.81,1.81,0,0,0,.37.18c.84.37,1.7.71,2.57,1l.3.13c1,.34,1.95.69,2.94,1,.82.27,1.63.55,2.47.77.55.15,1.09.32,1.63.44.37.13.75.2,1.12.3.59.15,1.18.27,1.78.4.79.19,1.6.37,2.4.49h.07c1.06.2,2.15.37,3.24.54h0c2.18.3,4.38.52,6.63.62,1.11,0,2.25.08,3.39.08h0c1.14,0,2.25,0,3.37-.08.88-.05,1.75-.1,2.62-.17.69,0,1.38-.12,2.1-.22a10.35,10.35,0,0,0,1.43-.18q1.41-.15,2.82-.42a17,17,0,0,0,1.76-.32,13.41,13.41,0,0,0,1.43-.29c.57-.1,1.14-.23,1.68-.38l.92-.22c.66-.17,1.33-.34,2-.54.07,0,.15,0,.2-.05,1.83-.52,3.66-1.14,5.44-1.81,1-.39,2-.79,3-1.23,1.88-.79,3.71-1.68,5.49-2.62,1.11-.62,2.22-1.24,3.31-1.91.69-.39,1.39-.84,2.05-1.28.18-.1.35-.23.55-.35.81-.54,1.63-1.09,2.42-1.68a5,5,0,0,0,.49-.35c.55-.39,1.09-.81,1.61-1.23,1-.75,1.93-1.54,2.87-2.35C411.93,224.27,414.33,224.6,416.73,225Z"/><path class="cls-1" d="M435,151.7a68.61,68.61,0,0,1-.48,8.39c-.14,1.32-.33,2.65-.58,3.93a73.15,73.15,0,0,0-144.1.08c-.25-1.33-.44-2.65-.58-4a68.6,68.6,0,0,1-.52-8.39,73.13,73.13,0,0,1,146.26,0Z"/><path class="cls-4" d="M434,164a66.37,66.37,0,0,1-2.47,10.16c-.77,2.4-1.66,4.71-2.65,7-.37.88-.81,1.76-1.22,2.61s-.92,1.8-1.39,2.72q-1.44,2.66-3.1,5.19a73.19,73.19,0,0,1-61.24,33.16,73.11,73.11,0,0,1-51.67-21.45c-1.44-1.44-2.8-2.91-4.09-4.46-.66-.77-1.29-1.54-1.91-2.32S303,195,302.42,194.2s-1.25-1.8-1.87-2.72c-.48-.77-1-1.54-1.44-2.35a71,71,0,0,1-6.73-14.8c-.48-1.51-.92-3-1.33-4.56-.44-1.84-.84-3.72-1.18-5.63v0A73.14,73.14,0,0,1,434,164Z"/><path class="cls-3" d="M434,164a71.37,71.37,0,0,1-2.47,10.16c-.77,2.4-1.66,4.71-2.65,7-.37.88-.81,1.76-1.22,2.61s-.88,1.8-1.39,2.72q-1.44,2.66-3.1,5.19a73.19,73.19,0,0,1-61.24,33.16,73.11,73.11,0,0,1-51.67-21.45c-1.44-1.44-2.8-2.91-4.09-4.46-.66-.77-1.29-1.54-1.91-2.32S303,195,302.42,194.2s-1.25-1.8-1.87-2.72c-.48-.77-1-1.54-1.44-2.35a71,71,0,0,1-6.73-14.8c-.48-1.51-.92-3-1.33-4.56-.44-1.84-.84-3.72-1.18-5.63v0A73.14,73.14,0,0,1,434,164Z"/><path class="cls-3" d="M416.73,225c-1,1.13-2,2.3-3.14,3.36a73,73,0,0,1-103.38,0c-1.11-1.06-2.1-2.2-3.14-3.34v0l1.58-.23q2.82-.41,5.69-.76c.91.79,1.85,1.56,2.79,2.27.65.55,1.31,1,2,1.54a71.21,71.21,0,0,0,8.28,5.21c.91.5,1.83,1,2.77,1.41h0c.89.45,1.83.87,2.75,1.26a1.81,1.81,0,0,0,.37.18c.86.37,1.7.71,2.57,1l.3.13c1,.34,1.95.69,2.94,1,.82.27,1.63.55,2.47.77.55.17,1.09.32,1.63.44.37.13.75.2,1.12.3.57.15,1.16.3,1.78.4.79.19,1.6.37,2.4.49,1.11.22,2.2.4,3.31.54h0a63.3,63.3,0,0,0,6.63.62c1.11,0,2.25.08,3.39.08h0c1.14,0,2.25,0,3.37-.08.88-.05,1.75-.1,2.62-.17.69,0,1.41-.12,2.1-.22a10,10,0,0,0,1.43-.18q1.41-.15,2.82-.42a13.88,13.88,0,0,0,1.76-.32,14.49,14.49,0,0,0,1.43-.29c.57-.1,1.11-.23,1.68-.38l.92-.22c.66-.17,1.36-.34,2-.54.07,0,.15,0,.2-.05,1.85-.55,3.66-1.14,5.44-1.81,1-.39,2-.79,3-1.23,1.85-.79,3.68-1.68,5.49-2.62,1.11-.62,2.22-1.24,3.31-1.91.69-.42,1.36-.84,2.05-1.28.18-.1.35-.23.55-.35.81-.54,1.63-1.11,2.42-1.68s1.41-1,2.1-1.58c1-.75,1.93-1.54,2.87-2.35C411.93,224.27,414.33,224.6,416.73,225Z"/></svg>